<svg width="33" height="28" viewBox="0 0 53 48" fill="none" xmlns="http://www.w3.org/2000/svg">
<path d="M20.2274 21.74C20.0065 21.72 19.7415 21.72 19.4986 21.74C14.2428 21.58 10.069 17.68 10.069 12.88C10.069 7.98 14.4415 4 19.874 4C25.2844 4 29.679 7.98 29.679 12.88C29.6569 17.68 25.4832 21.58 20.2274 21.74Z" stroke="white" stroke-width="3" stroke-linecap="round" stroke-linejoin="round"/>
<path d="M36.2394 8C40.5235 8 43.9685 11.14 43.9685 15C43.9685 18.78 40.656 21.86 36.5264 22C36.3498 21.98 36.151 21.98 35.9523 22" stroke="white" stroke-width="3" stroke-linecap="round" stroke-linejoin="round"/>
<path d="M9.18604 29.12C3.84188 32.36 3.84188 37.64 9.18604 40.86C15.259 44.54 25.2185 44.54 31.2915 40.86C36.6356 37.62 36.6356 32.34 31.2915 29.12C25.2406 25.46 15.281 25.46 9.18604 29.12Z" stroke="white" stroke-width="3" stroke-linecap="round" stroke-linejoin="round"/>
<path d="M40.5009 40C42.0909 39.7 43.5925 39.12 44.8292 38.26C48.2742 35.92 48.2742 32.06 44.8292 29.72C43.6146 28.88 42.135 28.32 40.5671 28" stroke="white" stroke-width="3" stroke-linecap="round" stroke-linejoin="round"/>
</svg>
