<svg width="19" height="18" viewBox="0 0 19 18" fill="none" xmlns="http://www.w3.org/2000/svg">
<path d="M17.996 9.81778L16.8018 8.05292L17.4604 6.0606C17.5352 5.83508 17.5226 5.58967 17.4249 5.37307C17.3272 5.15646 17.1517 4.98449 16.9331 4.89126L14.976 4.05691L14.4466 2.02117C14.3868 1.79127 14.243 1.59215 14.0435 1.46313C13.8441 1.33412 13.6035 1.28458 13.3693 1.32432L11.2777 1.67895L9.71964 0.249068C9.5448 0.0888658 9.31628 0 9.07914 0C8.84201 0 8.61348 0.0888658 8.43864 0.249068L6.88056 1.67895L4.78899 1.32329C4.55492 1.28359 4.31447 1.33315 4.11519 1.46218C3.9159 1.59121 3.77227 1.79032 3.7127 2.02013L3.18231 4.05691L1.22515 4.89436C1.00659 4.98759 0.831065 5.15957 0.733392 5.37617C0.635719 5.59277 0.623038 5.83818 0.697861 6.0637L1.35645 8.05602L0.162304 9.82088C0.0295715 10.0173 -0.0246352 10.2565 0.0103967 10.491C0.0454285 10.7255 0.167149 10.9383 0.351505 11.0874L1.98196 12.4056L1.9282 14.5303C1.92234 14.7678 2.00574 14.9988 2.16194 15.1778C2.31813 15.3568 2.53577 15.4706 2.77186 15.497L4.86033 15.7265L5.96039 17.541C6.08309 17.7448 6.27792 17.895 6.5062 17.9618C6.73449 18.0287 6.97956 18.0072 7.1928 17.9018L9.08379 16.9651L10.9738 17.9018C11.187 18.0072 11.4321 18.0287 11.6603 17.9618C11.8886 17.895 12.0835 17.7448 12.2062 17.541L13.3011 15.7265L15.3895 15.497C15.6256 15.4706 15.8432 15.3568 15.9994 15.1778C16.1556 14.9988 16.239 14.7678 16.2332 14.5303L16.1805 12.4046L17.8068 11.0874C17.992 10.9382 18.1142 10.7248 18.1493 10.4895C18.1843 10.2543 18.1296 10.0145 17.996 9.81778Z" fill="white"/>
<path d="M7.87722 12.6269C7.62492 12.6272 7.38213 12.5306 7.19899 12.357L5.25423 10.5208C5.06097 10.3425 4.94486 10.0959 4.93057 9.83331C4.91628 9.57075 5.00495 9.31296 5.17772 9.11474C5.26608 9.01759 5.37292 8.93904 5.49201 8.88369C5.61109 8.82835 5.74002 8.79731 5.87125 8.7924C6.00247 8.78749 6.13336 8.8088 6.25625 8.8551C6.37913 8.90139 6.49155 8.97173 6.58692 9.06201L7.85758 10.2603L11.6086 6.50932C11.7938 6.32409 12.045 6.22003 12.307 6.22003C12.5689 6.22003 12.8201 6.32409 13.0054 6.50932C13.1906 6.69454 13.2946 6.94576 13.2946 7.20771C13.2946 7.46966 13.1906 7.72088 13.0054 7.90611L8.57614 12.3374C8.48449 12.4294 8.37555 12.5023 8.2556 12.552C8.13565 12.6016 8.00706 12.6271 7.87722 12.6269Z" fill="black"/>
</svg>
